PathFileType	4	(X/Y/Z)	C:/Users/beibeiliu/ov580/test_trc\sequence.38_training_dense_right.trc
DataRate	CameraRate	NumFrames	NumMarkers	Units	OrigDataRate	OrigDataStartFrame	OrigNumFrames
120	120	16	19	mm	120	235	312
Frame#	Time	ThumbCMC			ThumbMCP			ThumbIP			ThumbTip			IndexMCP			IndexPIP			IndexTip			MiddleMCP			MiddlePIP			MiddleTip			RingMCP			RingPIP			RingTip			PinkyMCP			PinkyPIP			PinkyTip			BackHand1			BackHand2			BackHand3	
		X0	Y0	Z0	X1	Y1	Z1	X2	Y2	Z2	X3	Y3	Z3	X4	Y4	Z4	X5	Y5	Z5	X6	Y6	Z6	X7	Y7	Z7	X8	Y8	Z8	X9	Y9	Z9	X10	Y10	Z10	X11	Y11	Z11	X12	Y12	Z12	X13	Y13	Z13	X14	Y14	Z14	X15	Y15	Z15	X16	Y16	Z16	X17	Y17	Z17	X18	Y18	Z18	
234	1.95	261.198	-15.7514	52.1324	276.741	-18.8472	25.0804	286.21	-25.2352	3.23579	287.04	-29.016	-16.7593	263.815	-46.3351	-11.9094	268.174	-23.1174	-26.2863	269.191	-2.27371	-4.51986	247.287	-39.3135	-15.9368	254.852	-12.234	-26.197	251.15	-1.19981	6.69056	232.362	-30.1011	-16.074	238.918	-3.73282	-18.065	240.836	0.489887	13.9747	213.163	-23.1524	-12.2213	228.454	-5.10935	-13.7949	234.409	1.05924	8.96922	216.638	-43.7102	31.4149	213.919	-33.6077	55.9507	239.795	-40.716	48.8935	
235	1.95833	263.274	-18.5519	48.3898	278.315	-15.1166	25.4347	288.48	-21.4595	1.8767	292.245	-22.511	-18.4743	268.372	-45.5534	-9.20043	272.9	-22.0477	-25.4087	264.559	-2.96254	-8.84455	249.207	-39.5206	-16.8949	254.251	-9.62612	-24.3515	250.742	-0.469543	3.32272	230.641	-30.5701	-14.3026	237.749	-4.34716	-18.2844	239.585	1.62488	9.87602	216.842	-26.1724	-9.87442	226.974	-0.833497	-11.26	231.996	1.47388	9.81859	220.566	-43.7984	33.1481	215.245	-33.8751	56.0719	241.717	-43.0065	48.8715	
236	1.96667	264.223	-17.6631	48.7716	277.997	-11.3938	26.1724	286.121	-17.8605	1.65886	288.574	-19.6028	-21.5458	266.179	-46.28	-9.07804	273.524	-23.6014	-24.6731	267.839	-1.51778	-3.75675	248.739	-39.8062	-16.5757	255.219	-12.9968	-26.1534	248.462	-2.28279	6.76855	231.127	-29.2716	-17.2171	237.825	-4.50019	-18.4259	240.906	0.744935	8.6857	218.726	-25.4898	-13.1219	229.469	-5.44513	-12.0724	234.893	-2.51937	13.9123	216.286	-42.7528	30.1687	215.142	-31.3493	58.1822	241.918	-42.1013	47.6247	
237	1.975	265.409	-17.7107	48.5886	280.619	-10.3363	24.1572	286.938	-14.1128	1.99666	287.278	-14.0977	-21.0077	266.138	-47.724	-7.6229	268.942	-26.6033	-25.6938	262.299	-2.41722	-3.34334	248.877	-39.9656	-19.0566	252.686	-11.2136	-24.9315	249.154	-2.38093	6.54022	232.383	-30.0929	-18.3977	240.246	-7.10113	-17.7222	238.923	0.871945	8.94766	216.605	-26.5332	-11.7912	226.643	-2.97892	-12.3036	233.228	-3.47807	11.7954	220.564	-45.9798	31.9359	217.174	-34.8474	57.6045	242.258	-43.1281	51.1804	
238	1.98333	263.195	-15.6178	51.0957	276.36	-9.72212	23.1543	288.221	-10.0825	1.48379	288.134	-9.44275	-21.1005	265.41	-47.8587	-8.52903	273.815	-27.3708	-24.8428	265.35	-5.5204	-4.83621	248.543	-41.2197	-17.2661	250.52	-10.5906	-24.0172	249.147	-1.68473	3.05207	232.472	-32.5415	-16.7075	238.339	-6.8291	-18.6411	238.208	-1.72315	12.6667	214.497	-26.1103	-12.3133	227.859	-7.3743	-14.1554	235.639	-1.96199	11.2498	220.238	-45.319	34.1697	213.392	-32.2581	57.6283	243.425	-43.8489	50.0433	
239	1.99167	265.661	-16.1366	46.7849	274.697	-8.61402	23.3487	284.724	-7.70213	1.16041	284.422	-9.48505	-25.5296	269.625	-48.4365	-6.32006	271.891	-28.2317	-25.3715	265.703	-5.96574	-4.32258	248.267	-41.4373	-16.8204	250.048	-14.2158	-27.7094	251.686	-1.96506	3.73924	231.354	-31.6043	-18.9857	238.529	-5.80515	-17.2048	237.715	-1.16757	11.7431	213.09	-28.2042	-10.0304	227.351	-9.06732	-14.5978	231.964	-0.437784	12.2271	221.721	-44.4343	30.1985	217.218	-34.1499	56.0293	241.871	-41.1091	51.3742	
240	2	260.374	-16.1977	47.4012	278.085	-7.71726	21.1186	282.815	-7.93832	0.979843	285.525	-6.28947	-22.784	265.402	-48.7417	-10.2753	268.31	-25.0865	-25.7116	265.704	-7.7078	-5.34337	247.051	-40.789	-18.8758	252.235	-15.3832	-27.3425	252.14	-2.88821	5.29082	231.548	-32.5685	-16.9209	240.22	-6.88924	-17.0875	241.329	-0.970183	7.06815	213.828	-27.134	-14.6622	227.621	-8.47757	-15.4213	232.264	-2.68442	8.8734	216.529	-43.4627	32.7042	211.16	-33.3552	59.0912	240.735	-43.5276	49.7292	
241	2.00833	260.99	-16.6589	46.8548	276.775	-7.6966	19.2553	282.015	-9.48195	-1.67037	280.987	-9.57344	-25.8212	265.851	-48.1061	-8.30923	269.121	-28.3423	-26.5116	266.068	-7.79292	-4.87057	248.079	-41.1693	-17.6951	253.539	-14.7319	-27.225	245.939	-2.35236	1.0767	231.237	-33.0264	-17.6287	238.753	-6.05307	-17.6805	236.564	0.0365072	7.2377	213.616	-28.4086	-12.0481	226.281	-7.41734	-14.6527	230.634	-2.56701	13.022	217.59	-45.0603	33.0043	214.407	-32.7316	57.2193	240.806	-43.4423	48.0778	
242	2.01667	261.29	-17.1737	46.077	273.141	-9.47305	20.7692	284.312	-8.32593	-0.721211	282.461	-8.60734	-21.2158	267.969	-49.0861	-5.45806	269.67	-27.7281	-26.1424	262.011	-7.3665	-5.24337	246.245	-41.4394	-17.0683	253.769	-13.097	-25.7259	246.243	-2.40336	0.799537	229.368	-33.1948	-15.6152	239.386	-7.05603	-18.1833	235.314	-0.863165	11.1898	212.152	-28.6521	-11.0545	225.884	-4.7125	-13.0935	232.394	-2.75291	13.6944	219.923	-44.2029	29.9706	212.25	-33.0855	57.4617	240.465	-40.4907	51.6784	
243	2.025	261.902	-14.5439	50.1344	275.682	-8.86604	23.111	283.825	-11.5913	0.284151	287.288	-10.7696	-22.1573	266.152	-47.9623	-11.894	270.182	-26.2822	-25.9905	263.354	-5.82166	-5.19997	245.052	-41.8031	-15.9955	250.134	-14.6514	-28.8082	247.108	-2.14384	2.32807	231.474	-32.0058	-17.0469	239.814	-8.1033	-18.3077	238.882	-0.551905	7.57191	215.642	-27.9744	-10.682	227.808	-6.30014	-13.2328	231.534	-3.71798	8.71626	215.552	-44.7983	28.3825	212.992	-32.5937	55.2953	241.655	-41.7576	50.225	
244	2.03333	261.327	-14.474	50.7471	275.274	-12.5361	22.6156	286.09	-15.981	-0.501634	289.397	-15.9151	-21.2372	264.118	-47.5286	-10.2527	268.761	-25.2299	-26.599	262.442	-4.89115	-3.71859	248.067	-42.2034	-16.0106	249.825	-13.9823	-27.3169	248.3	-2.97468	4.05044	229.214	-32.1748	-18.457	235.962	-6.54672	-20.2424	238.328	-1.08063	10.9609	213.162	-27.0515	-12.1745	227.783	-6.39267	-14.1024	231.022	-3.00905	13.3539	218.032	-44.7106	32.717	212.784	-31.4973	55.8983	242.664	-42.9903	47.066	
245	2.04167	261.771	-15.7073	51.4094	276.715	-15.91	23.8182	284.865	-19.6031	5.10237	288.225	-21.9004	-18.0562	264.416	-48.251	-7.28521	272.072	-28.7328	-25.7867	262.384	-4.79264	-5.33985	245.686	-41.1629	-18.5668	251.38	-14.6586	-27.2675	250.03	-0.390155	1.28839	227.517	-31.6819	-17.7833	239.919	-6.2941	-18.0725	237.95	0.396001	6.75867	214.129	-24.1336	-14.7232	227.859	-6.4843	-13.8802	233.883	-3.31066	11.0101	217.734	-43.9834	28.8352	213.436	-31.0576	57.5218	242.194	-40.3114	49.9244	
246	2.05	264.37	-18.5373	50.8382	278.122	-19.3104	24.5469	284.062	-24.2769	5.21147	288.076	-29.7957	-17.5333	264.222	-49.035	-7.31847	271.731	-26.846	-25.961	267.371	-4.7504	-9.0602	247.027	-41.0268	-19.0061	251.273	-13.1381	-26.1657	252.783	-3.02058	5.3988	233.636	-33.7162	-15.9466	239.759	-5.56745	-17.7957	238.343	-0.774301	9.16455	215.822	-26.627	-11.5414	227.911	-8.27273	-15.9521	234.954	-2.58396	13.3414	214.651	-44.5429	30.3149	212.081	-31.7964	57.0967	242.741	-41.5353	51.2589	
247	2.05833	265.386	-19.5834	51.6637	279.056	-21.8344	25.5966	286.086	-28.2189	5.53106	292.509	-33.5457	-14.5097	266.595	-51.1907	-6.3682	271.454	-28.4313	-24.7884	270.456	-5.85152	-4.50432	249.391	-42.6053	-15.9839	255.037	-14.7899	-24.7331	254.52	-3.37008	3.77428	231.825	-31.9424	-18.9701	238.795	-6.85512	-16.7944	239.841	-2.81075	11.3405	214.631	-26.7505	-13.9579	230.182	-8.54013	-14.6704	232.524	-1.66687	10.378	215.185	-41.8478	33.4512	215.944	-32.3235	57.1399	242.532	-44.9626	50.2803	
248	2.06667	263.275	-19.683	51.8876	277.792	-22.3529	28.3612	285.636	-32.9068	6.32622	292.466	-37.6092	-13.3664	265.632	-51.8984	-6.80441	268.969	-32.1546	-24.8667	268.86	-8.23924	-7.00826	247.038	-42.2697	-18.1907	256.313	-16.3708	-24.2161	253.569	-4.65269	4.73838	232.853	-33.914	-14.5341	242.744	-11.1352	-17.7485	241.338	-4.15782	12.2247	214.82	-28.7023	-11.3695	229.204	-9.38004	-14.7358	233.01	-1.26082	12.2643	215.866	-43.682	33.881	210.158	-32.7421	58.3747	239.822	-43.148	49.7212	
249	2.075	261.147	-20.8608	53.8964	277.942	-28.3369	27.1983	284.247	-35.9461	9.31075	292.108	-43.8582	-12.2674	264.402	-53.1681	-8.2288	272.282	-32.6474	-23.7469	269.155	-10.0817	-5.89196	247.711	-43.8783	-18.2517	257.208	-18.5301	-25.2604	251.801	-5.12526	6.84123	234.562	-33.9686	-17.3106	242.599	-9.42686	-16.548	242.063	-3.70107	11.5457	219.128	-30.0688	-11.0795	226.79	-8.46139	-16.1778	234.405	-3.55592	11.2424	218.893	-45.0207	34.3031	213.164	-31.6025	60.0677	236.796	-44.4872	51.9506	
